<svg xmlns="http://www.w3.org/2000/svg" version="1.1" xmlns:xlink="http://www.w3.org/1999/xlink" xmlns:svgjs="http://svgjs.dev/svgjs" width="1000" height="1000" viewBox="0 0 1000 1000"><rect width="1000" height="1000" fill="#000000"></rect><g transform="matrix(0.7,0,0,0.7,149.5757671963596,373.9964759621341)"><svg viewBox="0 0 396 143" data-background-color="#ffffff" preserveAspectRatio="xMidYMid meet" height="361" width="1000" xmlns="http://www.w3.org/2000/svg" xmlns:xlink="http://www.w3.org/1999/xlink"><g id="tight-bounds" transform="matrix(1,0,0,1,0.23999455748798937,-0.19606672966037308)"><svg viewBox="0 0 395.52 143.39213345932072" height="143.39213345932072" width="395.52"><g><svg viewBox="0 0 708.3190610925708 256.79455233608076" height="143.39213345932072" width="395.52"><g><rect width="10.96408976379597" height="207.29099939499181" x="424.2218056643874" y="24.75177647054447" fill="#ffffff" opacity="1" stroke-width="0" stroke="transparent" fill-opacity="1" class="rect-o-0" data-fill-palette-color="primary" rx="1%" id="o-0" data-palette-color="#012030"></rect></g><g transform="matrix(1,0,0,1,0,25.26742572277081)"><svg viewBox="0 0 395.52000000000004 206.25970089053914" height="206.25970089053914" width="395.52000000000004"><g id="textblocktransform"><svg viewBox="0 0 395.52000000000004 206.25970089053914" height="206.25970089053914" width="395.52000000000004" id="textblock"><g><svg viewBox="0 0 395.52000000000004 157.64595810725714" height="157.64595810725714" width="395.52000000000004"><g transform="matrix(1,0,0,1,0,0)"><svg width="395.52000000000004" viewBox="-5.5 -43.34000015258789 156.32000732421875 62.19000244140625" height="157.64595810725714" data-palette-color="#012030"><g class="wordmark-text-0" data-fill-palette-color="primary" id="text-0"><path d="M2.98-33.08L10.89-35.21Q11.08-35.25 11.08-35.25L11.08-35.25 11.3-35.25Q11.72-35.25 12.11-34.97 12.5-34.69 12.89-34.01L12.89-34.01Q13.16-33.52 13.66-32.57 14.16-31.62 14.75-30.52 15.33-29.42 15.92-28.31 16.5-27.2 16.94-26.39L16.94-26.39 21-33.37 30.66-35.33Q30.79-35.35 30.9-35.36 31.01-35.38 31.13-35.38L31.13-35.38Q31.67-35.38 31.67-34.96L31.67-34.96Q31.67-34.81 31.6-34.58 31.54-34.35 31.4-34.08L31.4-34.08 26.98-26.2 25.22-23.19Q24.44-21.88 23.55-20.36 22.66-18.85 21.88-17.5L21.88-17.5Q22.31-16.77 22.69-16.09 23.07-15.41 23.38-14.84 23.68-14.28 23.89-13.87 24.1-13.45 24.22-13.23L24.22-13.23 30.15-1.98 30.08-1.07Q30.08-1 29.76-0.79 29.44-0.59 28.92-0.32 28.39-0.05 27.72 0.24 27.05 0.54 26.32 0.78L26.32 0.78 24.58 1.37Q24.27 1.37 23.89 1.53 23.51 1.68 23.1 1.68L23.1 1.68Q22.75 1.68 22.45 1.53 22.14 1.37 21.83 0.88L21.83 0.88Q21.26 0.07 20.58-1.03 19.9-2.12 19.12-3.54L19.12-3.54 16.43-8.28 12.57-1.76 11.82-1.03Q11.79-0.95 11.38-0.79 10.96-0.63 10.29-0.4 9.62-0.17 8.79 0.1 7.96 0.37 7.14 0.61 6.32 0.85 5.57 1.06 4.81 1.27 4.32 1.39L4.32 1.39Q4.03 1.39 3.48 1.54 2.93 1.68 2.51 1.68L2.51 1.68Q2.29 1.68 2.15 1.6 2 1.51 2 1.32L2 1.32Q2 1.1 2.22 0.56 2.44 0.02 2.81-0.7 3.17-1.42 3.63-2.27 4.08-3.13 4.54-3.98 5-4.83 5.44-5.62 5.88-6.4 6.2-6.98L6.2-6.98Q7.4-9.28 8.76-11.74L8.76-11.74 11.52-16.72 3.03-31.88Q2.78-32.3 2.78-32.74L2.78-32.74Q2.78-33.01 2.98-33.08L2.98-33.08ZM36.55-0.32L36.55-0.32Q36.06-0.44 35.89-0.7 35.72-0.95 35.72-1.27L35.72-1.27Q35.72-1.34 35.73-1.37 35.74-1.39 35.74-1.46L35.74-1.46Q35.94-4.1 36.17-6.99 36.4-9.89 36.67-12.88 36.94-15.87 37.2-18.85 37.47-21.83 37.74-24.63L37.74-24.63 37.72-24.63Q37.62-24.63 37.17-24.48 36.72-24.32 36.14-24.13 35.57-23.95 34.98-23.8 34.4-23.66 34.03-23.66L34.03-23.66Q33.71-23.66 33.58-23.9 33.44-24.15 33.44-24.44L33.44-24.44Q33.44-24.66 33.52-24.85L33.52-24.85Q34.18-26.76 34.89-28.42 35.59-30.08 36.3-31.84L36.3-31.84Q38.16-32.84 40.16-33.58 42.16-34.33 44.2-34.83 46.24-35.33 48.26-35.58 50.29-35.84 52.19-35.84L52.19-35.84Q54.86-35.84 57.21-35.28 59.57-34.72 61.31-33.58 63.06-32.45 64.07-30.73 65.09-29 65.09-26.68L65.09-26.68Q65.09-25.68 64.65-24.76 64.21-23.83 63.51-22.99 62.81-22.14 61.96-21.42 61.11-20.7 60.28-20.12L60.28-20.12Q61.45-19.26 62.39-18.57 63.33-17.87 63.99-17.11 64.65-16.36 64.99-15.42 65.33-14.48 65.33-13.13L65.33-13.13Q65.33-11.08 64.61-9.22 63.89-7.35 62.63-5.75 61.37-4.15 59.65-2.86 57.93-1.56 55.92-0.65 53.9 0.27 51.67 0.77 49.44 1.27 47.17 1.27L47.17 1.27Q46.34 1.27 44.94 1.1 43.55 0.93 42.03 0.7 40.5 0.46 39.02 0.18 37.55-0.1 36.55-0.32ZM47.8-27.1L47.8-27.1Q47.34-24.22 47.02-21.25 46.7-18.29 46.47-15.49 46.24-12.7 46.07-10.18 45.9-7.67 45.73-5.69L45.73-5.69Q46.7-5.69 47.84-5.8 48.97-5.91 50.1-6.18 51.22-6.45 52.28-6.87 53.34-7.3 54.15-7.93 54.95-8.57 55.44-9.44 55.93-10.3 55.93-11.43L55.93-11.43Q55.93-12.11 55.52-12.63 55.1-13.16 54.45-13.54 53.81-13.92 53.02-14.17 52.24-14.43 51.5-14.59 50.75-14.75 50.13-14.83 49.51-14.92 49.19-14.97L49.19-14.97Q48.85-15.01 48.75-15.21 48.65-15.41 48.65-15.7L48.65-15.7Q48.65-16.02 49.05-16.65 49.44-17.29 50.12-18.38L50.12-18.38 51.14-20.02Q51.8-20.26 52.57-20.63 53.34-21 54-21.47 54.66-21.95 55.1-22.55 55.54-23.14 55.54-23.85L55.54-23.85Q55.54-25.85 54.67-26.92 53.81-27.98 52.17-27.98L52.17-27.98Q50.31-27.98 47.8-27.1ZM84-0.95L78.63 11.13Q78.58 11.23 78.52 11.29 78.46 11.35 78.32 11.35L78.32 11.35Q78.17 11.35 78.1 11.33L78.1 11.33Q77.22 11.01 76.44 10.79 75.65 10.57 74.89 10.39 74.12 10.21 73.31 10.05 72.5 9.89 71.6 9.69L71.6 9.69Q71.36 9.64 71.22 9.53 71.09 9.42 71.09 9.16L71.09 9.16Q71.09 9.08 71.17 8.8 71.26 8.52 71.6 7.65 71.94 6.79 72.65 5.14 73.36 3.49 74.6 0.71L74.6 0.71Q74.24-0.51 73.77-2.22 73.31-3.93 72.79-5.96 72.26-7.98 71.7-10.24 71.14-12.5 70.56-14.81 69.99-17.11 69.42-19.37 68.84-21.63 68.31-23.68L68.31-23.68Q68.13-24.07 68.11-24.33 68.09-24.58 68.09-24.76L68.09-24.76Q68.09-25.1 68.48-25.2L68.48-25.2Q70.38-25.61 72.43-26.06 74.48-26.51 76.31-27.22L76.31-27.22Q76.39-27.25 76.53-27.25L76.53-27.25Q76.85-27.25 76.87-27L76.87-27 79.85-10.6Q79.95-10.89 80.23-11.66 80.51-12.43 80.89-13.5 81.27-14.58 81.73-15.87 82.2-17.16 82.69-18.51 83.17-19.85 83.65-21.18 84.13-22.51 84.54-23.66 84.96-24.8 85.26-25.68 85.57-26.56 85.74-27L85.74-27Q85.83-27.25 86.1-27.25L86.1-27.25Q86.18-27.25 86.2-27.23 86.23-27.22 86.3-27.22L86.3-27.22Q88.13-26.51 90.06-26.06 91.99-25.61 93.89-25.2L93.89-25.2Q94.36-25.1 94.36-24.66L94.36-24.66Q94.36-24.34 94.06-23.68L94.06-23.68 84-0.95ZM113.4-18.82L108.85-18.82Q108.51-16.26 108.21-13.71 107.9-11.16 107.83-8.94L107.83-8.94Q107.83-7.98 107.98-7.35 108.12-6.71 108.4-6.35 108.68-5.98 109.07-5.82 109.47-5.66 109.95-5.66L109.95-5.66Q110.73-5.66 111.66-5.9 112.59-6.13 113.52-6.49L113.52-6.49Q113.81-6.62 114.02-6.68 114.23-6.74 114.37-6.74L114.37-6.74Q114.62-6.74 114.7-6.52 114.79-6.3 114.87-5.75 114.96-5.2 115.13-4.27 115.3-3.34 115.69-1.93L115.69-1.93Q115.72-1.81 115.73-1.72 115.74-1.64 115.74-1.56L115.74-1.56Q115.74-1.22 115.48-1.07 115.23-0.93 114.64-0.73L114.64-0.73Q113.64-0.39 112.53-0.04 111.42 0.32 110.33 0.61 109.25 0.9 108.24 1.09 107.24 1.27 106.49 1.27L106.49 1.27Q102.41 1.27 100.54-0.76 98.67-2.78 98.67-6.93L98.67-6.93Q98.67-7.64 98.72-8.39 98.77-9.13 98.85-9.94L98.85-9.94Q99.09-12.38 99.27-14.56 99.46-16.75 99.65-18.75L99.65-18.75 97.09-18.75Q95.77-18.75 95.18-18.86 94.6-18.97 94.6-19.31L94.6-19.31Q94.6-19.41 94.84-19.84 95.09-20.26 95.46-20.86 95.84-21.46 96.28-22.14 96.72-22.83 97.12-23.43 97.53-24.02 97.82-24.46 98.11-24.9 98.19-25L98.19-25 99.92-25Q100.14-26.86 100.27-28.11 100.41-29.37 100.49-30.2 100.58-31.03 100.65-31.48 100.72-31.93 100.81-32.15 100.9-32.37 101.03-32.43 101.16-32.5 101.38-32.54L101.38-32.54Q102.48-32.76 103.51-32.95 104.53-33.13 105.56-33.33 106.58-33.52 107.65-33.78 108.71-34.03 109.86-34.38L109.86-34.38Q109.93-34.38 109.95-34.39 109.98-34.4 110.05-34.4L110.05-34.4Q110.34-34.4 110.34-34.2L110.34-34.2 110.34-34.16Q110.22-32.81 109.97-30.42 109.71-28.03 109.39-25L109.39-25 115.93-25Q116.13-25 116.31-24.87 116.5-24.73 116.5-24.41L116.5-24.41Q116.5-24.29 116.2-23.54 115.91-22.78 115.37-21.56L115.37-21.56 114.49-19.58Q114.32-19.21 114.14-19.04 113.96-18.87 113.4-18.82L113.4-18.82ZM133.05-27.25L133.05-27.25Q135.37-27.25 137.26-26.38 139.15-25.51 140.51-24.13 141.86-22.75 142.59-21.04 143.32-19.34 143.32-17.63L143.32-17.63Q143.32-16.11 142.4-14.59 141.47-13.06 139.8-11.84 138.12-10.62 135.78-9.86 133.44-9.11 130.63-9.11L130.63-9.11Q129.16-9.11 127.55-9.4L127.55-9.4Q127.65-8.35 128.16-7.59 128.68-6.84 129.46-6.35 130.24-5.86 131.23-5.63 132.22-5.4 133.27-5.4L133.27-5.4Q134.44-5.4 135.52-5.6 136.61-5.81 137.61-6.15 138.61-6.49 139.54-6.91 140.47-7.32 141.3-7.74L141.3-7.74Q141.52-7.79 141.68-7.82 141.84-7.86 141.98-7.86L141.98-7.86Q141.98-7.86 141.97-7.47 141.96-7.08 141.96-6.37 141.96-5.66 141.95-4.66 141.93-3.66 141.91-2.44L141.91-2.44Q141.98-2.32 142.01-2.2 142.03-2.08 142.03-2L142.03-2Q142.03-1.71 141.49-1.37 140.96-1.03 140.09-0.66 139.22-0.29 138.11 0.05 137 0.39 135.85 0.67 134.71 0.95 133.63 1.11 132.56 1.27 131.75 1.27L131.75 1.27Q129.12 1.27 126.64 0.35 124.16-0.56 122.24-2.27 120.33-3.98 119.18-6.42 118.03-8.86 118.03-11.91L118.03-11.91Q118.03-15.11 119.13-17.91 120.23-20.7 122.22-22.78 124.21-24.85 126.97-26.05 129.73-27.25 133.05-27.25ZM132.75-20.75L132.75-20.75Q131.75-20.75 130.91-20.32 130.07-19.9 129.37-19.1 128.68-18.31 128.16-17.2 127.65-16.09 127.33-14.75L127.33-14.75Q129.85-15.19 131.51-15.67 133.17-16.16 134.17-16.66 135.17-17.16 135.59-17.66 136-18.16 136-18.63L136-18.63Q136-19.07 135.67-19.46 135.34-19.85 134.85-20.14 134.37-20.43 133.79-20.59 133.22-20.75 132.75-20.75Z" fill="#ffffff" data-fill-palette-color="primary"></path></g></svg></g></svg></g><g transform="matrix(1,0,0,1,257.333792,186.3477637716445)"><svg viewBox="0 0 138.18620800000002 19.91193711889464" height="19.91193711889464" width="138.18620800000002"><g transform="matrix(1,0,0,1,0,0)"><svg width="138.18620800000002" viewBox="-4.420000076293945 -47.369998931884766 453.57000732421875 66.22000122070312" height="19.91193711889464" data-palette-color="#ed2326"><path d="M6.18-0.32L6.18-0.32Q5.69-0.44 5.52-0.7 5.35-0.95 5.35-1.27L5.35-1.27Q5.35-1.34 5.36-1.37 5.37-1.39 5.37-1.46L5.37-1.46Q5.57-4.1 5.8-6.99 6.03-9.89 6.3-12.88 6.57-15.87 6.84-18.85 7.1-21.83 7.37-24.63L7.37-24.63 7.35-24.63Q7.25-24.63 6.8-24.48 6.35-24.32 5.77-24.13 5.2-23.95 4.61-23.8 4.03-23.66 3.66-23.66L3.66-23.66Q3.34-23.66 3.21-23.9 3.08-24.15 3.08-24.44L3.08-24.44Q3.08-24.66 3.15-24.85L3.15-24.85Q3.81-26.76 4.52-28.42 5.22-30.08 5.93-31.84L5.93-31.84Q7.79-32.84 9.79-33.58 11.79-34.33 13.83-34.83 15.87-35.33 17.9-35.58 19.92-35.84 21.83-35.84L21.83-35.84Q24.49-35.84 26.84-35.28 29.2-34.72 30.94-33.58 32.69-32.45 33.7-30.73 34.72-29 34.72-26.68L34.72-26.68Q34.72-25.68 34.28-24.76 33.84-23.83 33.14-22.99 32.45-22.14 31.59-21.42 30.74-20.7 29.91-20.12L29.91-20.12Q31.08-19.26 32.02-18.57 32.96-17.87 33.62-17.11 34.28-16.36 34.62-15.42 34.96-14.48 34.96-13.13L34.96-13.13Q34.96-11.08 34.24-9.22 33.52-7.35 32.26-5.75 31.01-4.15 29.28-2.86 27.56-1.56 25.55-0.65 23.54 0.27 21.3 0.77 19.07 1.27 16.8 1.27L16.8 1.27Q15.97 1.27 14.58 1.1 13.18 0.93 11.66 0.7 10.13 0.46 8.65 0.18 7.18-0.1 6.18-0.32ZM17.43-27.1L17.43-27.1Q16.97-24.22 16.65-21.25 16.33-18.29 16.1-15.49 15.87-12.7 15.7-10.18 15.53-7.67 15.36-5.69L15.36-5.69Q16.33-5.69 17.47-5.8 18.6-5.91 19.73-6.18 20.85-6.45 21.91-6.87 22.97-7.3 23.78-7.93 24.58-8.57 25.07-9.44 25.56-10.3 25.56-11.43L25.56-11.43Q25.56-12.11 25.15-12.63 24.73-13.16 24.08-13.54 23.44-13.92 22.66-14.17 21.88-14.43 21.13-14.59 20.39-14.75 19.76-14.83 19.14-14.92 18.82-14.97L18.82-14.97Q18.48-15.01 18.38-15.21 18.29-15.41 18.29-15.7L18.29-15.7Q18.29-16.02 18.68-16.65 19.07-17.29 19.75-18.38L19.75-18.38 20.78-20.02Q21.44-20.26 22.2-20.63 22.97-21 23.63-21.47 24.29-21.95 24.73-22.55 25.17-23.14 25.17-23.85L25.17-23.85Q25.17-25.85 24.3-26.92 23.44-27.98 21.8-27.98L21.8-27.98Q19.95-27.98 17.43-27.1ZM52.95-0.95L47.58 11.13Q47.53 11.23 47.47 11.29 47.41 11.35 47.26 11.35L47.26 11.35Q47.12 11.35 47.04 11.33L47.04 11.33Q46.16 11.01 45.38 10.79 44.6 10.57 43.83 10.39 43.06 10.21 42.26 10.05 41.45 9.89 40.55 9.69L40.55 9.69Q40.31 9.64 40.17 9.53 40.04 9.42 40.04 9.16L40.04 9.16Q40.04 9.08 40.12 8.8 40.21 8.52 40.55 7.65 40.89 6.79 41.6 5.14 42.31 3.49 43.55 0.71L43.55 0.71Q43.19-0.51 42.72-2.22 42.26-3.93 41.73-5.96 41.21-7.98 40.65-10.24 40.09-12.5 39.51-14.81 38.94-17.11 38.36-19.37 37.79-21.63 37.25-23.68L37.25-23.68Q37.08-24.07 37.06-24.33 37.03-24.58 37.03-24.76L37.03-24.76Q37.03-25.1 37.42-25.2L37.42-25.2Q39.33-25.61 41.38-26.06 43.43-26.51 45.26-27.22L45.26-27.22Q45.33-27.25 45.48-27.25L45.48-27.25Q45.8-27.25 45.82-27L45.82-27 48.8-10.6Q48.9-10.89 49.18-11.66 49.46-12.43 49.84-13.5 50.22-14.58 50.68-15.87 51.14-17.16 51.63-18.51 52.12-19.85 52.6-21.18 53.07-22.51 53.49-23.66 53.9-24.8 54.21-25.68 54.51-26.56 54.69-27L54.69-27Q54.78-27.25 55.05-27.25L55.05-27.25Q55.12-27.25 55.15-27.23 55.17-27.22 55.25-27.22L55.25-27.22Q57.08-26.51 59.01-26.06 60.94-25.61 62.84-25.2L62.84-25.2Q63.3-25.1 63.3-24.66L63.3-24.66Q63.3-24.34 63.01-23.68L63.01-23.68 52.95-0.95ZM82.34-18.82L77.8-18.82Q77.46-16.26 77.16-13.71 76.85-11.16 76.78-8.94L76.78-8.94Q76.78-7.98 76.92-7.35 77.07-6.71 77.35-6.35 77.63-5.98 78.02-5.82 78.41-5.66 78.9-5.66L78.9-5.66Q79.68-5.66 80.61-5.9 81.54-6.13 82.47-6.49L82.47-6.49Q82.76-6.62 82.97-6.68 83.17-6.74 83.32-6.74L83.32-6.74Q83.56-6.74 83.65-6.52 83.74-6.3 83.82-5.75 83.91-5.2 84.08-4.27 84.25-3.34 84.64-1.93L84.64-1.93Q84.66-1.81 84.68-1.72 84.69-1.64 84.69-1.56L84.69-1.56Q84.69-1.22 84.43-1.07 84.17-0.93 83.59-0.73L83.59-0.73Q82.59-0.39 81.48-0.04 80.37 0.32 79.28 0.61 78.19 0.9 77.19 1.09 76.19 1.27 75.43 1.27L75.43 1.27Q71.36 1.27 69.49-0.76 67.62-2.78 67.62-6.93L67.62-6.93Q67.62-7.64 67.67-8.39 67.72-9.13 67.79-9.94L67.79-9.94Q68.04-12.38 68.22-14.56 68.4-16.75 68.6-18.75L68.6-18.75 66.04-18.75Q64.72-18.75 64.13-18.86 63.54-18.97 63.54-19.31L63.54-19.31Q63.54-19.41 63.79-19.84 64.03-20.26 64.41-20.86 64.79-21.46 65.23-22.14 65.67-22.83 66.07-23.43 66.47-24.02 66.77-24.46 67.06-24.9 67.13-25L67.13-25 68.87-25Q69.09-26.86 69.22-28.11 69.36-29.37 69.44-30.2 69.53-31.03 69.6-31.48 69.67-31.93 69.76-32.15 69.84-32.37 69.98-32.43 70.11-32.5 70.33-32.54L70.33-32.54Q71.43-32.76 72.46-32.95 73.48-33.13 74.51-33.33 75.53-33.52 76.59-33.78 77.66-34.03 78.8-34.38L78.8-34.38Q78.88-34.38 78.9-34.39 78.93-34.4 79-34.4L79-34.4Q79.29-34.4 79.29-34.2L79.29-34.2 79.29-34.16Q79.17-32.81 78.91-30.42 78.66-28.03 78.34-25L78.34-25 84.88-25Q85.08-25 85.26-24.87 85.44-24.73 85.44-24.41L85.44-24.41Q85.44-24.29 85.15-23.54 84.86-22.78 84.32-21.56L84.32-21.56 83.44-19.58Q83.27-19.21 83.09-19.04 82.91-18.87 82.34-18.82L82.34-18.82ZM101.63-27.25L101.63-27.25Q103.95-27.25 105.84-26.38 107.73-25.51 109.09-24.13 110.44-22.75 111.17-21.04 111.91-19.34 111.91-17.63L111.91-17.63Q111.91-16.11 110.98-14.59 110.05-13.06 108.38-11.84 106.71-10.62 104.36-9.86 102.02-9.11 99.21-9.11L99.21-9.11Q97.75-9.11 96.14-9.4L96.14-9.4Q96.23-8.35 96.75-7.59 97.26-6.84 98.04-6.35 98.82-5.86 99.81-5.63 100.8-5.4 101.85-5.4L101.85-5.4Q103.02-5.4 104.11-5.6 105.19-5.81 106.19-6.15 107.19-6.49 108.12-6.91 109.05-7.32 109.88-7.74L109.88-7.74Q110.1-7.79 110.26-7.82 110.42-7.86 110.56-7.86L110.56-7.86Q110.56-7.86 110.55-7.47 110.54-7.08 110.54-6.37 110.54-5.66 110.53-4.66 110.51-3.66 110.49-2.44L110.49-2.44Q110.56-2.32 110.59-2.2 110.61-2.08 110.61-2L110.61-2Q110.61-1.71 110.08-1.37 109.54-1.03 108.67-0.66 107.81-0.29 106.69 0.05 105.58 0.39 104.44 0.67 103.29 0.95 102.21 1.11 101.14 1.27 100.33 1.27L100.33 1.27Q97.7 1.27 95.22 0.35 92.74-0.56 90.83-2.27 88.91-3.98 87.76-6.42 86.61-8.86 86.61-11.91L86.61-11.91Q86.61-15.11 87.71-17.91 88.81-20.7 90.8-22.78 92.79-24.85 95.55-26.05 98.31-27.25 101.63-27.25ZM101.34-20.75L101.34-20.75Q100.33-20.75 99.49-20.32 98.65-19.9 97.95-19.1 97.26-18.31 96.75-17.2 96.23-16.09 95.92-14.75L95.92-14.75Q98.43-15.19 100.09-15.67 101.75-16.16 102.75-16.66 103.75-17.16 104.17-17.66 104.58-18.16 104.58-18.63L104.58-18.63Q104.58-19.07 104.25-19.46 103.92-19.85 103.43-20.14 102.95-20.43 102.37-20.59 101.8-20.75 101.34-20.75ZM115.4-0.07L115.08-6.74Q115.08-6.76 115.07-6.77 115.05-6.79 115.05-6.81L115.05-6.81Q115.05-7.13 115.4-7.13L115.4-7.13Q115.62-7.13 115.79-6.96L115.79-6.96Q116.76-6.03 118.02-5.44 119.28-4.86 120.74-4.86L120.74-4.86Q121.13-4.86 121.65-4.94 122.16-5.03 122.62-5.22 123.09-5.42 123.39-5.75 123.7-6.08 123.7-6.57L123.7-6.57Q123.7-7.1 123.43-7.56 123.16-8.01 122.72-8.3L122.72-8.3Q122.48-8.47 121.87-8.9 121.25-9.33 120.56-9.81 119.86-10.3 119.24-10.74 118.62-11.18 118.37-11.38L118.37-11.38Q117.28-12.21 116.63-13.06 115.98-13.92 115.64-14.83 115.3-15.75 115.2-16.75 115.1-17.75 115.1-18.87L115.1-18.87Q115.1-20.58 116.01-22.09 116.91-23.61 118.39-24.76 119.86-25.9 121.74-26.57 123.62-27.25 125.58-27.25L125.58-27.25Q127.19-27.25 128.75-26.76 130.31-26.27 131.66-25.1L131.66-25.1Q131.78-23.56 131.83-22.07 131.87-20.58 131.97-18.95L131.97-18.95Q131.97-18.63 131.83-18.52 131.68-18.41 131.48-18.41L131.48-18.41Q131.31-18.41 131.19-18.53L131.19-18.53Q130.63-19.07 130.04-19.59 129.46-20.12 128.81-20.52 128.16-20.92 127.43-21.18 126.7-21.44 125.87-21.44L125.87-21.44Q125.36-21.44 124.84-21.35 124.33-21.26 123.92-21.03 123.5-20.8 123.24-20.41 122.99-20.02 122.99-19.41L122.99-19.41Q122.99-18.7 123.16-18.19 123.33-17.68 123.96-17.19L123.96-17.19 128.51-14.11Q129.75-13.26 130.52-12.44 131.29-11.62 131.73-10.82 132.17-10.01 132.33-9.22 132.49-8.42 132.49-7.64L132.49-7.64Q132.49-5.44 131.47-3.77 130.46-2.1 128.85-0.99 127.24 0.12 125.2 0.7 123.16 1.27 121.11 1.27L121.11 1.27Q119.55 1.27 118.09 0.94 116.64 0.61 115.4-0.07L115.4-0.07ZM160.14 1.27L160.14 1.27Q156.7 1.27 154.1 0.15 151.5-0.98 149.74-2.84 147.98-4.71 147.1-7.14 146.23-9.57 146.23-12.18L146.23-12.18Q146.23-14.79 147.08-17.15 147.93-19.51 149.47-21.37 151.01-23.24 153.16-24.5 155.31-25.76 157.9-26.2L157.9-26.2Q158.29-26.22 158.29-26.37L158.29-26.37Q158.29-26.64 158.22-26.87 158.16-27.1 158.16-27.27L158.16-27.27Q158.16-27.54 158.26-27.64 158.36-27.73 158.48-27.73L158.48-27.73Q163.14-27.73 166.42-26.67 169.69-25.61 171.74-23.78 173.79-21.95 174.72-19.46 175.64-16.97 175.64-14.11L175.64-14.11Q175.64-10.47 174.42-7.62 173.2-4.76 171.09-2.78 168.98-0.81 166.16 0.23 163.34 1.27 160.14 1.27ZM155.62-12.45L155.62-12.45Q155.62-11.13 155.91-9.84 156.19-8.54 156.83-7.5 157.48-6.45 158.53-5.8 159.58-5.15 161.14-5.15L161.14-5.15Q162.27-5.2 163.11-5.65 163.95-6.1 164.56-6.82 165.17-7.54 165.57-8.45 165.98-9.35 166.21-10.31 166.44-11.28 166.54-12.21 166.64-13.13 166.64-13.89L166.64-13.89Q166.64-15.16 166.26-16.38 165.88-17.6 165.15-18.53 164.41-19.46 163.33-20.03 162.24-20.61 160.82-20.61L160.82-20.61Q159.36-20.61 158.36-19.74 157.36-18.87 156.76-17.6 156.16-16.33 155.89-14.93 155.62-13.53 155.62-12.45ZM181.5 0.37L181.5 0.37Q181.53 0.1 181.61-0.79 181.7-1.68 181.82-3.05 181.94-4.42 182.1-6.19 182.26-7.96 182.45-10 182.65-12.04 182.86-14.26 183.06-16.48 183.28-18.75L183.28-18.75 180.04-18.75Q178.72-18.75 178.13-18.86 177.55-18.97 177.55-19.31L177.55-19.31Q177.55-19.41 177.79-19.84 178.03-20.26 178.41-20.86 178.79-21.46 179.23-22.14 179.67-22.83 180.07-23.43 180.48-24.02 180.77-24.46 181.06-24.9 181.13-25L181.13-25 184.11-25 184.6-28.88Q184.94-31.96 185.83-34.06 186.73-36.16 188.06-37.45 189.39-38.75 191.1-39.31 192.8-39.87 194.76-39.87L194.76-39.87Q196.71-39.87 198.82-39.39 200.93-38.92 203.08-38.09L203.08-38.09Q203.55-37.89 203.78-37.76 204.01-37.62 204.01-37.4L204.01-37.4Q204.01-37.21 203.84-36.89L203.84-36.89Q203.06-35.38 202.68-34.45 202.3-33.52 202.08-32.98 201.86-32.45 201.72-32.26 201.57-32.08 201.28-32.08L201.28-32.08Q201.13-32.08 200.97-32.15 200.81-32.23 200.59-32.32L200.59-32.32Q199.74-32.64 198.87-32.9 198-33.15 197.22-33.15L197.22-33.15Q196.13-33.15 195.33-32.47 194.54-31.79 194.07-29.88L194.07-29.88Q193.81-28.78 193.63-27.51 193.46-26.25 193.34-25L193.34-25 199.71-25Q199.91-25 200.09-24.87 200.28-24.73 200.28-24.41L200.28-24.41Q200.28-24.29 199.98-23.54 199.69-22.78 199.15-21.56L199.15-21.56 198.27-19.58Q198.1-19.21 197.92-19.04 197.74-18.87 197.17-18.82L197.17-18.82 192.95-18.82Q192.68-16.28 192.44-13.79 192.19-11.3 191.97-9.12 191.75-6.93 191.58-5.24 191.41-3.54 191.32-2.61L191.32-2.61Q191.29-2.54 191.29-2.34L191.29-2.34Q191.29-2.25 191.3-2.17 191.32-2.1 191.32-2.05L191.32-2.05Q191.32-1.83 191.16-1.7 191-1.56 190.34-1.39L190.34-1.39 183.92 0.88Q183.65 0.98 183.21 1.12 182.77 1.27 182.36 1.27L182.36 1.27Q181.94 1.27 181.72 1.07 181.5 0.88 181.5 0.37ZM214.97-0.32L214.97-0.32Q214.48-0.44 214.31-0.7 214.14-0.95 214.14-1.27L214.14-1.27Q214.14-1.34 214.15-1.37 214.16-1.39 214.16-1.46L214.16-1.46Q214.36-4.1 214.59-6.99 214.82-9.89 215.09-12.88 215.36-15.87 215.63-18.85 215.9-21.83 216.16-24.63L216.16-24.63 216.14-24.63Q216.04-24.63 215.59-24.48 215.14-24.32 214.56-24.13 213.99-23.95 213.41-23.8 212.82-23.66 212.45-23.66L212.45-23.66Q212.14-23.66 212-23.9 211.87-24.15 211.87-24.44L211.87-24.44Q211.87-24.66 211.94-24.85L211.94-24.85Q212.6-26.76 213.31-28.42 214.02-30.08 214.72-31.84L214.72-31.84Q216.58-32.84 218.58-33.58 220.58-34.33 222.62-34.83 224.66-35.33 226.69-35.58 228.71-35.84 230.62-35.84L230.62-35.84Q233.28-35.84 235.63-35.28 237.99-34.72 239.74-33.58 241.48-32.45 242.49-30.73 243.51-29 243.51-26.68L243.51-26.68Q243.51-25.68 243.07-24.76 242.63-23.83 241.93-22.99 241.24-22.14 240.38-21.42 239.53-20.7 238.7-20.12L238.7-20.12Q239.87-19.26 240.81-18.57 241.75-17.87 242.41-17.11 243.07-16.36 243.41-15.42 243.75-14.48 243.75-13.13L243.75-13.13Q243.75-11.08 243.03-9.22 242.31-7.35 241.05-5.75 239.8-4.15 238.08-2.86 236.35-1.56 234.34-0.65 232.33 0.27 230.09 0.77 227.86 1.27 225.59 1.27L225.59 1.27Q224.76 1.27 223.37 1.1 221.97 0.93 220.45 0.7 218.92 0.46 217.45 0.18 215.97-0.1 214.97-0.32ZM226.22-27.1L226.22-27.1Q225.76-24.22 225.44-21.25 225.12-18.29 224.89-15.49 224.66-12.7 224.49-10.18 224.32-7.67 224.15-5.69L224.15-5.69Q225.12-5.69 226.26-5.8 227.39-5.91 228.52-6.18 229.64-6.45 230.7-6.87 231.76-7.3 232.57-7.93 233.38-8.57 233.86-9.44 234.35-10.3 234.35-11.43L234.35-11.43Q234.35-12.11 233.94-12.63 233.52-13.16 232.88-13.54 232.23-13.92 231.45-14.17 230.67-14.43 229.92-14.59 229.18-14.75 228.55-14.83 227.93-14.92 227.61-14.97L227.61-14.97Q227.27-15.01 227.17-15.21 227.08-15.41 227.08-15.7L227.08-15.7Q227.08-16.02 227.47-16.65 227.86-17.29 228.54-18.38L228.54-18.38 229.57-20.02Q230.23-20.26 231-20.63 231.76-21 232.42-21.47 233.08-21.95 233.52-22.55 233.96-23.14 233.96-23.85L233.96-23.85Q233.96-25.85 233.1-26.92 232.23-27.98 230.59-27.98L230.59-27.98Q228.74-27.98 226.22-27.1ZM267.87-27.44L266.36-19.87Q265.84-19.92 265.21-19.98 264.57-20.04 263.87-20.04L263.87-20.04Q262.79-20.04 261.68-19.86 260.57-19.68 259.62-19.14 258.67-18.6 257.98-17.66 257.3-16.72 257.1-15.23L257.1-15.23Q256.93-13.43 256.82-12.27 256.71-11.11 256.66-10.36 256.62-9.62 256.58-9.17 256.54-8.72 256.52-8.33L256.52-8.33Q256.52-8.23 256.48-7.79 256.44-7.35 256.37-6.76 256.3-6.18 256.24-5.49 256.18-4.81 256.1-4.22 256.03-3.64 255.99-3.2 255.96-2.76 255.96-2.66L255.96-2.66Q255.96-2.47 255.97-2.33 255.98-2.2 255.98-2.08L255.98-2.08Q255.98-1.88 255.8-1.75 255.61-1.61 254.98-1.44L254.98-1.44 248.51 0.88Q248.24 0.98 247.8 1.12 247.36 1.27 246.95 1.27L246.95 1.27Q246.61 1.27 246.35 1.1 246.09 0.93 246.09 0.51L246.09 0.51 248.19-23.68Q248.27-24.49 248.38-24.79 248.49-25.1 248.93-25.2L248.93-25.2Q251.15-25.63 253.52-26.09 255.88-26.54 258.1-27.25L258.1-27.25Q258.3-27.25 258.34-27.19 258.37-27.12 258.37-27L258.37-27Q258.37-26.95 258.36-26.86 258.35-26.76 258.29-26.42 258.23-26.07 258.12-25.38 258.01-24.68 257.81-23.44L257.81-23.44Q258.93-24.32 260.29-25.05 261.64-25.78 263.01-26.31 264.38-26.83 265.65-27.14 266.92-27.44 267.87-27.44L267.87-27.44ZM269.09-10.35L269.09-10.35Q269.41-13.7 269.72-16.97 270.04-20.24 270.29-23.68L270.29-23.68Q270.33-24.49 270.44-24.79 270.55-25.1 270.99-25.2L270.99-25.2Q273.07-25.61 275.34-26.06 277.61-26.51 279.73-27.22L279.73-27.22Q279.81-27.25 279.95-27.25L279.95-27.25Q280.22-27.25 280.22-27.05L280.22-27.05 278.02-3.27Q277.95-2.47 277.85-2.16 277.76-1.86 277.32-1.76L277.32-1.76Q275.24-1.12 273.12-0.34 270.99 0.44 268.62 1.25L268.62 1.25Q268.55 1.27 268.41 1.27L268.41 1.27Q268.14 1.27 268.14 1.03L268.14 1.03Q268.14 1 268.19 0.37 268.23-0.27 268.32-1.27 268.41-2.27 268.5-3.52 268.6-4.76 268.71-6.01 268.82-7.25 268.92-8.4 269.02-9.55 269.09-10.35ZM270.92-29.83L270.92-29.83Q270.99-30.88 271.03-31.45 271.07-32.01 271.09-32.29 271.12-32.57 271.12-32.64 271.12-32.71 271.13-32.75 271.14-32.79 271.15-32.9 271.16-33.01 271.19-33.36 271.21-33.72 271.26-34.4 271.31-35.08 271.41-36.28L271.41-36.28Q271.46-37.08 271.57-37.39 271.68-37.7 272.12-37.79L272.12-37.79Q274.19-38.21 276.46-38.66 278.73-39.11 280.86-39.82L280.86-39.82Q280.93-39.84 281.08-39.84L281.08-39.84Q281.15-39.7 281.27-39.65L281.27-39.65 281.34-39.6 280.81-32.91Q280.73-32.1 280.62-31.79 280.51-31.47 280.1-31.4L280.1-31.4Q278.02-31.01 275.9-30.54 273.78-30.08 271.41-29.61L271.41-29.61Q271.33-29.59 271.19-29.59L271.19-29.59Q270.92-29.59 270.92-29.83ZM285.08-20.65L285.08-20.65Q285.37-24 285.55-27.27 285.74-30.54 285.96-33.98L285.96-33.98Q286.01-34.79 286.12-35.1 286.22-35.4 286.66-35.5L286.66-35.5Q288.93-35.91 291.22-36.34 293.5-36.77 295.8-37.48L295.8-37.48Q295.87-37.5 296.01-37.5L296.01-37.5Q296.28-37.5 296.28-37.26L296.28-37.26 293.11-2.39 293.11-1.98Q293.11-1.76 292.94-1.62 292.77-1.49 292.13-1.32L292.13-1.32 285.74 1.03Q285.47 1.15 285.03 1.28 284.59 1.42 284.17 1.42L284.17 1.42Q283.83 1.42 283.58 1.25 283.32 1.07 283.32 0.66L283.32 0.66 283.32 0.51Q283.51-1.95 283.7-4.31 283.88-6.67 284.09-9.18 284.3-11.69 284.54-14.5 284.78-17.31 285.08-20.65ZM300.26-20.65L300.26-20.65Q300.55-24 300.74-27.27 300.92-30.54 301.14-33.98L301.14-33.98Q301.19-34.79 301.3-35.1 301.41-35.4 301.85-35.5L301.85-35.5Q304.12-35.91 306.4-36.34 308.68-36.77 310.98-37.48L310.98-37.48Q311.05-37.5 311.2-37.5L311.2-37.5Q311.47-37.5 311.47-37.26L311.47-37.26 308.29-2.39 308.29-1.98Q308.29-1.76 308.12-1.62 307.95-1.49 307.32-1.32L307.32-1.32 300.92 1.03Q300.65 1.15 300.21 1.28 299.77 1.42 299.36 1.42L299.36 1.42Q299.02 1.42 298.76 1.25 298.5 1.07 298.5 0.66L298.5 0.66 298.5 0.51Q298.7-1.95 298.88-4.31 299.06-6.67 299.27-9.18 299.48-11.69 299.72-14.5 299.97-17.31 300.26-20.65ZM314.39-10.35L314.39-10.35Q314.71-13.7 315.03-16.97 315.35-20.24 315.59-23.68L315.59-23.68Q315.64-24.49 315.75-24.79 315.86-25.1 316.3-25.2L316.3-25.2Q318.37-25.61 320.64-26.06 322.91-26.51 325.04-27.22L325.04-27.22Q325.11-27.25 325.26-27.25L325.26-27.25Q325.53-27.25 325.53-27.05L325.53-27.05 323.33-3.27Q323.26-2.47 323.16-2.16 323.06-1.86 322.62-1.76L322.62-1.76Q320.55-1.12 318.42-0.34 316.3 0.44 313.93 1.25L313.93 1.25Q313.86 1.27 313.71 1.27L313.71 1.27Q313.44 1.27 313.44 1.03L313.44 1.03Q313.44 1 313.49 0.37 313.54-0.27 313.62-1.27 313.71-2.27 313.81-3.52 313.91-4.76 314.02-6.01 314.13-7.25 314.22-8.4 314.32-9.55 314.39-10.35ZM316.22-29.83L316.22-29.83Q316.3-30.88 316.33-31.45 316.37-32.01 316.4-32.29 316.42-32.57 316.42-32.64 316.42-32.71 316.43-32.75 316.44-32.79 316.46-32.9 316.47-33.01 316.49-33.36 316.52-33.72 316.57-34.4 316.62-35.08 316.71-36.28L316.71-36.28Q316.76-37.08 316.87-37.39 316.98-37.7 317.42-37.79L317.42-37.79Q319.5-38.21 321.77-38.66 324.04-39.11 326.16-39.82L326.16-39.82Q326.23-39.84 326.38-39.84L326.38-39.84Q326.45-39.7 326.58-39.65L326.58-39.65 326.65-39.6 326.11-32.91Q326.04-32.1 325.93-31.79 325.82-31.47 325.4-31.4L325.4-31.4Q323.33-31.01 321.21-30.54 319.08-30.08 316.71-29.61L316.71-29.61Q316.64-29.59 316.49-29.59L316.49-29.59Q316.22-29.59 316.22-29.83ZM356.14-27.66L353.62-4.91Q353.6-4.81 353.6-4.72 353.6-4.64 353.6-4.57L353.6-4.57Q353.6-3.96 353.8-3.55 353.99-3.15 354.22-2.89 354.45-2.64 354.65-2.48 354.85-2.32 354.85-2.2L354.85-2.2Q354.85-1.86 354.11-1.56L354.11-1.56 347.55 1.25Q347.52 1.27 347.37 1.27L347.37 1.27Q347.18 1.27 346.98 0.93 346.79 0.59 346.61 0.06 346.42-0.46 346.26-1.06 346.11-1.66 345.98-2.17L345.98-2.17Q344.44-0.39 342.66 0.44 340.88 1.27 339.12 1.27L339.12 1.27Q337.07 1.27 335.12 0.37 333.17-0.54 331.65-2.21 330.14-3.88 329.22-6.25 328.31-8.62 328.31-11.57L328.31-11.57Q328.31-15.06 329.32-17.94 330.33-20.83 332.07-22.9 333.8-24.98 336.11-26.11 338.41-27.25 341-27.25L341-27.25Q342.83-27.25 344.47-26.5 346.11-25.76 347.57-24.58L347.57-24.58Q347.72-25.32 347.74-25.76 347.77-26.2 347.85-26.44 347.94-26.68 348.18-26.77 348.42-26.86 348.99-26.9L348.99-26.9Q350.74-27.15 352.49-27.36 354.23-27.56 356.14-27.66L356.14-27.66ZM345.3-6.88L346.32-14.11Q346.57-15.5 346.65-16.74 346.74-17.97 346.79-18.99L346.79-18.99Q346.4-19.29 345.95-19.6 345.49-19.92 344.97-20.2 344.44-20.48 343.87-20.65 343.3-20.83 342.66-20.83L342.66-20.83Q341.34-20.83 340.45-19.97 339.56-19.12 339.01-17.87 338.46-16.63 338.23-15.23 338-13.84 338-12.77L338-12.77Q338-8.91 339.01-7.12 340.03-5.32 341.83-5.32L341.83-5.32Q342.57-5.32 343.47-5.74 344.37-6.15 345.3-6.88L345.3-6.88ZM385.36-0.78L379.43 0.88Q379.16 0.95 378.72 1.11 378.28 1.27 377.87 1.27L377.87 1.27Q377.52 1.27 377.27 1.1 377.01 0.93 377.01 0.51L377.01 0.51 377.01 0.37Q377.16-0.95 377.25-1.87 377.35-2.78 377.44-3.53 377.52-4.27 377.58-5.02 377.65-5.76 377.74-6.75 377.84-7.74 377.98-9.09 378.11-10.45 378.3-12.48L378.3-12.48Q378.43-13.72 378.52-15.01 378.62-16.31 378.62-17.41L378.62-17.41Q378.62-18.14 378.51-18.76 378.4-19.38 378.12-19.84 377.84-20.29 377.35-20.53 376.86-20.78 376.11-20.78L376.11-20.78Q375.55-20.78 374.56-20.53 373.57-20.29 372.59-19.73 371.62-19.17 370.86-18.25 370.1-17.33 370-15.99L370-15.99Q369.86-14.18 369.74-12.9 369.61-11.62 369.52-10.73 369.42-9.84 369.36-9.28 369.3-8.72 369.27-8.33L369.27-8.33Q369.25-8.23 369.2-7.79 369.15-7.35 369.09-6.74 369.03-6.13 368.97-5.44 368.91-4.76 368.84-4.15 368.78-3.54 368.75-3.1 368.71-2.66 368.71-2.56L368.71-2.56Q368.71-2.37 368.72-2.23 368.73-2.1 368.73-1.98L368.73-1.98Q368.73-1.78 368.55-1.65 368.37-1.51 367.73-1.34L367.73-1.34 361.26 0.88Q361 0.98 360.56 1.12 360.12 1.27 359.7 1.27L359.7 1.27Q359.36 1.27 359.1 1.1 358.85 0.93 358.85 0.51L358.85 0.51 361.07-24.44Q361.14-25.24 361.25-25.55 361.36-25.85 361.8-25.95L361.8-25.95Q364.02-26.39 366.37-26.84 368.71-27.29 370.93-28L370.93-28Q371.13-28 371.16-27.94 371.2-27.88 371.2-27.76L371.2-27.76Q371.2-27.71 371.19-27.61 371.18-27.51 371.11-27.17 371.05-26.83 370.94-26.14 370.83-25.44 370.64-24.19L370.64-24.19Q372.32-25.17 373.8-25.77 375.28-26.37 376.58-26.7 377.89-27.03 379.04-27.14 380.18-27.25 381.19-27.25L381.19-27.25Q384.63-27.25 386.19-25.16 387.75-23.07 387.75-18.9L387.75-18.9Q387.75-18.31 387.73-17.69 387.7-17.07 387.63-16.41L387.63-16.41 386.51-5.91Q386.39-4.88 386.36-4.02 386.34-3.15 386.34-2L386.34-2Q386.34-1.81 386.35-1.67 386.36-1.54 386.36-1.44L386.36-1.44Q386.36-1.22 386.18-1.1 386-0.98 385.36-0.78L385.36-0.78ZM390.95-11.91L390.95-11.91Q390.95-15.11 392.13-17.91 393.32-20.7 395.4-22.78 397.49-24.85 400.34-26.05 403.18-27.25 406.52-27.25L406.52-27.25Q408.8-27.25 410.41-26.88 412.02-26.51 413.04-26.06 414.07-25.61 414.54-25.23 415.02-24.85 415.02-24.83L415.02-24.83Q415.02-24.68 414.91-24.01 414.8-23.34 414.67-22.45 414.53-21.56 414.42-20.62 414.31-19.68 414.31-18.99L414.31-18.99Q414.31-18.87 414.24-18.73 414.17-18.58 413.85-18.58L413.85-18.58Q413.56-18.58 412.99-18.79 412.43-18.99 411.62-19.24 410.8-19.48 409.74-19.69 408.67-19.9 407.38-19.9L407.38-19.9Q405.77-19.9 404.47-19.32 403.18-18.75 402.25-17.74 401.32-16.72 400.82-15.33 400.32-13.94 400.32-12.33L400.32-12.33Q400.32-10.64 400.85-9.46 401.37-8.28 402.25-7.53 403.13-6.79 404.28-6.45 405.43-6.1 406.7-6.1L406.7-6.1Q408.16-6.1 409.65-6.51 411.14-6.91 412.46-7.64L412.46-7.64Q412.51-7.67 412.65-7.67L412.65-7.67Q412.77-7.67 412.84-7.54 412.9-7.42 412.9-7.08L412.9-7.08Q412.9-6.3 412.9-5.19 412.9-4.08 412.88-3.06 412.87-2.05 412.85-1.34 412.82-0.63 412.8-0.63L412.8-0.63Q411.92-0.05 410.9 0.32 409.87 0.68 408.78 0.9 407.7 1.12 406.6 1.2 405.5 1.27 404.47 1.27L404.47 1.27Q401.62 1.27 399.15 0.32 396.69-0.63 394.87-2.37 393.05-4.1 392-6.53 390.95-8.96 390.95-11.91ZM431.38-27.25L431.38-27.25Q433.7-27.25 435.59-26.38 437.48-25.51 438.83-24.13 440.19-22.75 440.92-21.04 441.65-19.34 441.65-17.63L441.65-17.63Q441.65-16.11 440.73-14.59 439.8-13.06 438.13-11.84 436.45-10.62 434.11-9.86 431.77-9.11 428.96-9.11L428.96-9.11Q427.49-9.11 425.88-9.4L425.88-9.4Q425.98-8.35 426.49-7.59 427.01-6.84 427.79-6.35 428.57-5.86 429.56-5.63 430.55-5.4 431.6-5.4L431.6-5.4Q432.77-5.4 433.85-5.6 434.94-5.81 435.94-6.15 436.94-6.49 437.87-6.91 438.8-7.32 439.63-7.74L439.63-7.74Q439.85-7.79 440.01-7.82 440.16-7.86 440.31-7.86L440.31-7.86Q440.31-7.86 440.3-7.47 440.29-7.08 440.29-6.37 440.29-5.66 440.27-4.66 440.26-3.66 440.24-2.44L440.24-2.44Q440.31-2.32 440.34-2.2 440.36-2.08 440.36-2L440.36-2Q440.36-1.71 439.82-1.37 439.29-1.03 438.42-0.66 437.55-0.29 436.44 0.05 435.33 0.39 434.18 0.67 433.04 0.95 431.96 1.11 430.89 1.27 430.08 1.27L430.08 1.27Q427.45 1.27 424.97 0.35 422.49-0.56 420.57-2.27 418.66-3.98 417.51-6.42 416.36-8.86 416.36-11.91L416.36-11.91Q416.36-15.11 417.46-17.91 418.56-20.7 420.55-22.78 422.54-24.85 425.3-26.05 428.06-27.25 431.38-27.25ZM431.08-20.75L431.08-20.75Q430.08-20.75 429.24-20.32 428.4-19.9 427.7-19.1 427.01-18.31 426.49-17.2 425.98-16.09 425.66-14.75L425.66-14.75Q428.18-15.19 429.84-15.67 431.5-16.16 432.5-16.66 433.5-17.16 433.91-17.66 434.33-18.16 434.33-18.63L434.33-18.63Q434.33-19.07 434-19.46 433.67-19.85 433.18-20.14 432.69-20.43 432.12-20.59 431.55-20.75 431.08-20.75Z" opacity="1" transform="matrix(1,0,0,1,0,0)" fill="#ffffff" class="slogan-text-1" data-fill-palette-color="secondary" id="text-1"></path></svg></g></svg></g></svg></g></svg></g><g transform="matrix(1,0,0,1,463.8877010925707,0)"><svg viewBox="0 0 244.43136 256.79455233608076" height="256.79455233608076" width="244.43136"><g><svg xmlns="http://www.w3.org/2000/svg" xmlns:xlink="http://www.w3.org/1999/xlink" version="1.1" x="0" y="0" viewBox="8.480998992919922 6.380997657775879 83.03799438476562 87.23800659179688" enable-background="new 0 0 100 100" xml:space="preserve" height="256.79455233608076" width="244.43136" class="icon-icon-0" data-fill-palette-color="accent" id="icon-0"><g fill="#ed2326" data-fill-palette-color="accent"><path d="M50.132 6.381c-1.546 0-34.877 0.096-40.561 7.582-0.645 0.332-1.09 0.996-1.09 1.771 0 0.465 0.092 0.908 0.264 1.331v14.948c0 9.765 39.696 9.877 41.387 9.877 1.689 0 41.387-0.112 41.387-9.877V16.258C91.519 6.494 51.821 6.381 50.132 6.381zM50.132 10.381c21.515 0 34.48 3.289 36.996 5.481-1.712 2.18-14.851 5.749-37.259 5.749-21.517 0-34.481-3.29-36.997-5.481C14.585 13.95 27.724 10.381 50.132 10.381zM87.519 31.942c-1.034 2.154-14.285 5.947-37.387 5.947s-36.353-3.793-37.387-5.947V20.57c10.297 4.97 35.777 5.041 37.124 5.041 1.37 0 27.728-0.074 37.649-5.308V31.942z" fill="#ffffff" data-fill-palette-color="accent"></path><path d="M89.519 38.417c-1.08 0-1.96 0.856-1.998 1.927-1.024 2.153-14.276 5.95-37.389 5.95s-36.364-3.796-37.389-5.95c-0.038-1.071-0.918-1.927-1.998-1.927-1.104 0-2 0.896-2 2v17.33c0 9.765 39.696 9.877 41.387 9.877 1.689 0 41.387-0.112 41.387-9.877v-17.33C91.519 39.312 90.623 38.417 89.519 38.417zM87.519 57.677c-1.034 2.154-14.284 5.947-37.387 5.947s-36.353-3.793-37.387-5.947V45.123c10.119 5.098 36.028 5.171 37.387 5.171s27.268-0.073 37.387-5.171V57.677z" fill="#ffffff" data-fill-palette-color="accent"></path><path d="M89.519 64.412c-1.08 0-1.96 0.856-1.998 1.927-1.024 2.153-14.276 5.95-37.389 5.95s-36.364-3.796-37.389-5.95c-0.038-1.071-0.918-1.927-1.998-1.927-1.104 0-2 0.896-2 2v17.33c0 9.765 39.696 9.877 41.387 9.877 1.689 0 41.387-0.112 41.387-9.877v-17.33C91.519 65.307 90.623 64.412 89.519 64.412zM87.519 83.671c-1.034 2.154-14.285 5.947-37.387 5.947s-36.353-3.793-37.387-5.947V71.118c10.119 5.098 36.028 5.171 37.387 5.171s27.268-0.073 37.387-5.171V83.671z" fill="#ffffff" data-fill-palette-color="accent"></path></g></svg></g></svg></g></svg></g><defs></defs></svg><rect width="395.52" height="143.39213345932072" fill="none" stroke="none" visibility="hidden"></rect></g></svg></g></svg>