<svg xmlns="http://www.w3.org/2000/svg" version="1.1" xmlns:xlink="http://www.w3.org/1999/xlink" xmlns:svgjs="http://svgjs.dev/svgjs" width="1000" height="1125" viewBox="0 0 1000 1125"><g transform="matrix(1,0,0,1,1.7053025658242404e-13,0)"><svg viewBox="0 0 320 360" data-background-color="#13678a" preserveAspectRatio="xMidYMid meet" height="1125" width="1000" xmlns="http://www.w3.org/2000/svg" xmlns:xlink="http://www.w3.org/1999/xlink"><g id="tight-bounds" transform="matrix(1,0,0,1,0,0)"><svg viewBox="0 0 320 360" height="360" width="320"><g><svg></svg></g><g><svg viewBox="0 0 320 360" height="360" width="320"><g><path xmlns="http://www.w3.org/2000/svg" d="M20.961 227.22l3.726 4.658-1.863-6.056c-0.466-2.795-3.726 0.466-1.863 1.398M25.153 224.425c1.397 2.329 2.795 4.658 2.795 6.987 0 3.261 2.795 4.658 5.123 5.589-3.261-3.726-5.124-13.974-7.918-12.576M204.017 26.929c7.918 0 15.371-0.932 23.756 0.931 20.495 5.124 37.729 15.371 49.374 29.811l32.606 52.169c1.397 13.042 4.192 27.482 3.726 43.319 3.261 0 2.795-4.658 6.521-5.59-3.726 9.316-5.59 20.961-6.521 34.469-2.329-7.453 0-18.632 0.466-24.687-3.261 5.124-5.124 1.397-5.124-0.932 0.466-3.726-1.397-3.261-2.795-4.658-5.124-4.658-8.384-9.782-12.11-17.7 2.329-6.055 2.795-14.905-4.658-19.563-2.329-1.397-5.124-3.726-6.521-7.453-1.863-5.124-5.124-11.179-4.193-19.097 0.466-2.329-6.987 5.124-11.179 1.863-18.166-12.576-36.332-27.016-58.224-39.127-11.645 0-20.029-4.192-24.221-9.316-3.726-4.658-0.932-10.713 4.658-11.179 3.261 0 6.987-0.932 9.782 0.932 0.466-1.863 2.329-4.192 4.657-4.192M157.904 16.215l0.932 0.466c4.658 0.932 6.987 7.453 12.11 5.124 0 3.261 0.466 6.521-0.466 8.85-1.397 3.726-5.59 3.726-8.85 3.726-31.208-1.863-49.374 11.179-68.471 22.358-5.124 3.261-10.713 5.59-14.906 9.782-20.029 18.632-41.921 35.866-47.045 70.335l-4.192 38.195c-0.466 4.192-5.124 8.384-4.192 13.508l3.26 22.824c-3.261-3.261-5.124 0.932-4.192 2.795 0.466 1.397 2.329 6.055 5.124 1.863 3.726 6.987 7.453 20.495 12.576 26.55 15.837 18.632 36.332 35.4 53.101 52.169 4.192-0.932 7.453-0.932 8.384-3.727 1.397 2.795-1.397 5.59-3.726 6.056 7.453 4.658 15.837 8.85 27.016 9.781 14.44 0.932 27.948 3.261 40.524 6.522 6.521-1.863 13.042-2.795 20.029-3.261 2.329 0 3.726-3.726 6.521-4.658l0.466-4.658c2.795 4.192 2.329-1.397 0.466-4.192 3.261 2.795 4.192 5.124 5.589 6.987 0-1.397 3.726-6.521 3.727-0.466l0.931-6.055c1.397-0.932 1.863 5.124 3.261 0.931 1.397-4.192 4.192-0.932 6.987-2.329-0.932 1.863-0.466 5.59 2.794 3.261l3.727-3.261c2.329 5.59 6.055 3.261 7.918 2.329 20.495-13.042 40.99-28.413 60.553-43.784l-0.466 6.055 2.329-7.453c2.329 2.329 4.192 0.466 5.124-0.931 2.795-4.658 6.521-9.316 12.577-13.508-7.453 20.029-16.303 35.866-27.482 48.908l-4.658 5.59c0 3.261-0.932 7.453-4.658 7.918-1.863 0.466-5.59-0.932-8.384 1.863-1.397 1.863 3.261 5.59-0.466 2.795-3.261-2.329-6.521 0-10.248 0.932-2.795 0.932 1.863 3.726 2.795 5.589 0.932 1.863 1.863 3.726 1.398 6.056l-5.124-5.59c-6.055 3.261-9.782 9.316-14.906 13.974-2.329 1.863-1.397 5.124-1.397 7.918-3.261 0-6.987-0.932-8.85 0.932-1.397 1.863-0.932 4.658-0.932 7.453-4.658-0.466-5.124-7.453-9.315-6.056-4.192 0.932-8.85 1.397-12.577 3.727 2.795 5.59-4.658 2.329-3.726 3.26-6.987-4.192-13.042-7.453-20.495-4.658-15.837-5.124-35.4-2.795-49.84-0.931 0-2.329 0.466-4.658-0.466-5.124-0.932 2.329-3.726 1.397-3.26 1.397-8.85-6.055-17.7-9.782-27.016-14.905-8.384 0.932-16.303-3.261-18.632-5.59-6.521-6.055-13.974-2.795-20.029-4.192-13.042-3.261-17.7-16.769-19.098-26.084-0.932-4.658-4.658-6.521-6.055-6.056-6.055-19.563-15.371-37.263-22.824-55.429-1.863-4.658-1.397-9.316-1.397-14.44 2.329 0.932 4.658 0.466 4.192-2.794-2.329-15.371-7.918-27.016-13.974-38.195 3.261-15.837 3.726-34.469 11.179-48.443 6.521-12.576 18.632-19.098 27.016-29.811 2.795-3.726 2.795-8.85 5.59-12.11 9.316-9.316 18.632-19.098 28.879-27.482 4.658-3.726 10.247 0 17.234-1.397 2.329-8.384 11.645-15.837 20.495-13.508 3.726 0.932 11.179-8.85 13.508-9.782 3.726-1.397 1.863 3.726 1.863 6.987 8.85-6.987 20.961-10.713 32.14-14.906" fill="#dafdba" fill-rule="nonzero" stroke="none" stroke-width="1" stroke-linecap="butt" stroke-linejoin="miter" stroke-miterlimit="10" stroke-dasharray="" stroke-dashoffset="0" font-family="none" font-weight="none" font-size="none" text-anchor="none" style="mix-blend-mode: normal" data-fill-palette-color="tertiary"></path></g><g transform="matrix(1,0,0,1,64,145.20632177777298)"><svg viewBox="0 0 192 69.587356444454" height="69.587356444454" width="192"><g><svg viewBox="0 0 192 69.587356444454" height="69.587356444454" width="192"><g><svg viewBox="0 0 192 69.587356444454" height="69.587356444454" width="192"><g><svg viewBox="0 0 192 69.587356444454" height="69.587356444454" width="192"><g id="textblocktransform"><svg viewBox="0 0 192 69.587356444454" height="69.587356444454" width="192" id="textblock"><g><svg viewBox="0 0 192 45.53004677941706" height="45.53004677941706" width="192"><g transform="matrix(1,0,0,1,0,0)"><svg width="192" viewBox="0.3500000238418579 -32.45000076293945 138.9399871826172 32.95000076293945" height="45.53004677941706" data-palette-color="#dafdba"><path d="M17.9 0.35L17.65 0 17.9-3Q19.35-3.1 20.03-3.4 20.7-3.7 20.7-4.4L20.7-4.4Q20.7-5.1 19.9-6.2L19.9-6.2 15.55-12.7 12.15-7.95Q11.15-6.6 10.78-5.85 10.4-5.1 10.4-4.6L10.4-4.6Q10.4-3.85 10.98-3.5 11.55-3.15 12.85-3.1L12.85-3.1 13.05-2.7 12.75 0.3Q12 0.25 9.7 0.1 7.4-0.05 6.3-0.05L6.3-0.05Q5.1-0.05 3.13 0.05 1.15 0.15 0.55 0.2L0.55 0.2 0.35-0.3 0.7-3.25Q3.65-4.25 7.95-9.95L7.95-9.95 12.95-16.55 7.55-24.65Q6.2-26.65 4.75-27.53 3.3-28.4 1.1-28.8L1.1-28.8 0.9-29.05 1.3-32.2Q2-32.2 4.23-32.15 6.45-32.1 9.2-32.1L9.2-32.1Q11.15-32.1 13.6-32.25 16.05-32.4 16.8-32.45L16.8-32.45 17.05-32 16.8-29.2Q15.2-29.1 14.48-28.73 13.75-28.35 13.75-27.65L13.75-27.65Q13.75-27 14.78-25.33 15.8-23.65 18.3-19.9L18.3-19.9Q18.25-19.85 19.85-22.15L19.85-22.15Q21.5-24.5 22.38-25.9 23.25-27.3 23.25-27.85L23.25-27.85Q23.25-28.5 22.7-28.8 22.15-29.1 20.8-29.15L20.8-29.15 20.7-29.4 21-32.25 23.35-32.2Q26.05-32.1 27.55-32.1L27.55-32.1Q29.4-32.1 30.98-32.15 32.55-32.2 33.1-32.25L33.1-32.25 33.3-31.9 33-28.9Q30.8-28.15 29.5-27.08 28.2-26 26.4-23.6L26.4-23.6 20.95-16.1 26.95-7.5Q28.4-5.4 29.9-4.42 31.4-3.45 33.5-3.3L33.5-3.3 33.65-3.1 33.25 0.1Q32.55 0.1 30.63 0.03 28.7-0.05 26.8-0.05L26.8-0.05Q25.2-0.05 22.05 0.13 18.9 0.3 17.9 0.35L17.9 0.35ZM43.15 0Q41.4 0 39.05 0.2 36.7 0.4 35.95 0.5L35.95 0.5 36.3-2.8Q38.45-3.2 39.2-4.03 39.95-4.85 39.95-6.8L39.95-6.8 40-26.4Q40-27.8 39.65-28.35 39.3-28.9 38.4-28.9L38.4-28.9Q37.9-28.9 37.4-28.85 36.9-28.8 36.7-28.8L36.7-28.8 36.35-29.2 36.8-32.2Q37.6-32.2 39.72-32.15 41.85-32.1 43.7-32.1L43.7-32.1Q45.6-32.1 47.95-32.2 50.3-32.3 51.25-32.35L51.25-32.35Q56.4-32.35 59.1-30.35 61.8-28.35 61.8-24.6L61.8-24.6Q61.8-22.1 60.37-20.18 58.95-18.25 56.4-16.95L56.4-16.95Q59.65-16.1 61.57-14.25 63.5-12.4 63.5-9.5L63.5-9.5Q63.5-6.55 61.87-4.28 60.25-2 57.32-0.75 54.4 0.5 50.55 0.5L50.55 0.5Q49.95 0.5 48.9 0.4 47.85 0.3 47.3 0.25L47.3 0.25Q46.65 0.2 45.3 0.1 43.95 0 43.15 0L43.15 0ZM46.6-18.4Q47.2-18.35 49-18.15 50.8-17.95 51.4-17.95L51.4-17.95Q51.4-17.85 52.37-18.48 53.35-19.1 54.12-20.3 54.9-21.5 54.9-23.35L54.9-23.35Q54.9-25.9 53.2-27.1 51.5-28.3 47.9-28.3L47.9-28.3Q47.4-28.3 47.22-28.1 47.05-27.9 47-27.35L47-27.35Q46.7-23.3 46.6-18.4L46.6-18.4ZM46.5-14.05L46.3-6.65Q46.3-5.05 47.4-4.38 48.5-3.7 51.05-3.7L51.05-3.7Q53.5-3.7 54.9-5.05 56.3-6.4 56.3-8.75L56.3-8.75Q56.3-10.8 54.97-12.18 53.65-13.55 51.15-14.1L51.15-14.1 46.5-14.05ZM70.95 0.4L71.25-2.5Q72.9-2.7 73.7-3.03 74.5-3.35 74.77-4.03 75.05-4.7 75.05-6L75.05-6 75.05-7.05Q75.05-8 74.8-8.85 74.55-9.7 73.9-10.9L73.9-10.9 69.75-18.4Q68.85-20.1 67.9-20.9 66.95-21.7 65.2-22.15L65.2-22.15 65.05-22.35 65.45-25.1Q66.1-25.1 67.75-25.05 69.4-25 70.95-25L70.95-25Q72.25-25 74.57-25.13 76.9-25.25 77.65-25.3L77.65-25.3 77.9-24.9 77.65-22.45Q76.35-22.4 75.85-22.15 75.35-21.9 75.35-21.3L75.35-21.3Q75.35-20.85 76.4-18.6 77.45-16.35 77.65-15.9L77.65-15.9 78.6-13.9 79-13.9 81.95-19.8Q82.6-20.95 82.6-21.6L82.6-21.6Q82.6-22 82.12-22.2 81.65-22.4 80.6-22.45L80.6-22.45 80.45-22.65 80.75-25.15 83.1-25.1Q85.3-25 86.45-25L86.45-25Q87.95-25 89.17-25.05 90.4-25.1 90.8-25.15L90.8-25.15 90.95-24.85 90.65-22.25Q89.05-21.7 88-20.6 86.95-19.5 85.7-17.3L85.7-17.3 81.8-10.3Q81.3-9.35 81.2-8.43 81.1-7.5 81.05-5.35L81.05-5.35Q81.05-3.95 81.47-3.4 81.9-2.85 83.05-2.85L83.05-2.85Q83.75-2.85 84.32-2.9 84.9-2.95 85.1-2.95L85.1-2.95 85.25-2.75 84.85 0.2Q84.05 0.15 81.9 0.08 79.75 0 77.7 0L77.7 0Q76.2 0 73.92 0.18 71.65 0.35 70.95 0.4L70.95 0.4ZM95.79 0.3L96.09-2.6Q97.99-2.75 98.84-3.08 99.69-3.4 99.97-4.13 100.24-4.85 100.24-6.45L100.24-6.45 100.24-21.55Q98.24-21.5 97.37-21.15 96.49-20.8 96.09-19.8 95.69-18.8 95.39-16.4L95.39-16.4 91.59-16.15Q91.64-17 91.82-19.78 91.99-22.55 92.04-25L92.04-25 92.54-25.5 96.79-25.05 109.69-25.05 114.04-25.5 114.54-25Q114.59-22.45 114.72-19.8 114.84-17.15 114.89-16.4L114.89-16.4 111.09-16.15Q110.79-18.75 110.42-19.8 110.04-20.85 109.24-21.18 108.44-21.5 106.54-21.55L106.54-21.55Q106.14-15.85 106.14-5.5L106.14-5.5Q106.14-4.05 106.64-3.45 107.14-2.85 108.39-2.85L108.39-2.85Q109.19-2.85 109.79-2.9 110.39-2.95 110.54-2.95L110.54-2.95 110.69-2.75 110.34 0.2Q109.49 0.15 107.24 0.08 104.99 0 102.94 0L102.94 0Q101.49 0 99.04 0.13 96.59 0.25 95.79 0.3L95.79 0.3ZM117.34 0.4L117.64-2.5Q119.34-2.7 119.94-3.43 120.54-4.15 120.54-5.9L120.54-5.9 120.59-20.15Q120.59-21.4 120.34-21.83 120.09-22.25 119.29-22.25L119.29-22.25 118.09-22.2 117.79-22.6 118.14-25.15Q118.94-25.15 121.22-25.1 123.49-25.05 126.09-25.05L126.09-25.05Q134.94-25.05 138.69-25.5L138.69-25.5 139.04-25.05Q138.89-24.4 138.56-22.23 138.24-20.05 138.09-17.75L138.09-17.75 133.94-17.5Q133.94-17.65 133.99-18.13 134.04-18.6 134.04-19.05L134.04-19.05Q134.04-20.15 133.69-20.6 133.34-21.05 132.34-21.23 131.34-21.4 129.04-21.4L129.04-21.4Q127.69-21.4 127.37-21.2 127.04-21 126.99-20.2L126.99-20.2 126.74-14.55 130.44-14.55Q131.34-14.55 132.99-14.68 134.64-14.8 135.19-14.85L135.19-14.85 135.59-14.4 134.99-10.8Q134.44-10.8 132.92-10.85 131.39-10.9 129.69-10.9L129.69-10.9Q128.34-10.9 126.59-10.65L126.59-10.65Q126.49-8.25 126.49-5.75L126.49-5.75Q126.49-4.65 126.64-4.2 126.79-3.75 127.29-3.58 127.79-3.4 128.99-3.4L128.99-3.4Q131.49-3.4 132.64-3.73 133.79-4.05 134.29-4.93 134.79-5.8 135.09-7.8L135.09-7.8 138.89-8.1 139.29-7.65Q139.14-7.05 138.77-4.85 138.39-2.65 138.14-0.2L138.14-0.2 137.69 0.25Q136.44 0.2 132.27 0.1 128.09 0 124.74 0L124.74 0Q122.39 0 120.19 0.18 117.99 0.35 117.34 0.4L117.34 0.4Z" opacity="1" transform="matrix(1,0,0,1,0,0)" fill="#dafdba" class="wordmark-text-0" data-fill-palette-color="primary" id="text-0"></path></svg></g></svg></g><g transform="matrix(1,0,0,1,0,52.17397332565672)"><svg viewBox="0 0 192 17.413383118797288" height="17.413383118797288" width="192"><g transform="matrix(1,0,0,1,0,0)"><svg width="192" viewBox="2.8600001335144043 -36.040000915527344 496.8800048828125 45.06999969482422" height="17.413383118797288" data-palette-color="#dafdba"><path d="M23.36-19.02L23.36-25.93 15.36-25.93 15.36-32.4 27.88-32.4 34.38-25.93 34.38-19.34 31.13-16.09 34.38-12.84 34.38-6.47 27.88 0 15.36 0 15.36-6.47 23.36-6.47 23.36-13.38 15.36-13.38 15.36-19.02 23.36-19.02ZM2.86 0L2.86-32.4 13.65-32.4 13.65 0 2.86 0ZM66.65-25.93L53.49 9.03 43.14 9.03 56.27-25.93 66.65-25.93ZM45.73-2.17L36.15-25.93 46.92-25.93 50.56-15.38 45.73-2.17ZM79.93-32.4L79.93-6.47 87.06-6.47 87.06 0 75.63 0 69.14-6.47 69.14-19.46 66.99-19.46 66.99-25.93 69.14-25.93 69.14-28.74 79.93-32.4ZM87.45-19.46L81.64-19.46 81.64-25.93 87.45-25.93 87.45-19.46ZM101.75-25.93L101.75 0 97.43 0 90.96-6.47 90.96-19.46 97.43-25.93 101.75-25.93ZM119.08-10.4L103.46-10.4 103.46-14.92 109.15-14.92 109.15-19.46 103.46-19.46 103.46-25.93 112.61-25.93 119.08-19.46 119.08-10.4ZM114.74 0L103.46 0 103.46-6.05 117.96-6.05 117.96-3.25 114.74 0ZM123.48-20.12L129.31-25.93 133.63-25.93 133.63-16.77 145.94-16.77 151.55-11.11 151.55-6.05 145.52 0 140.76 0 140.76-9.79 129.09-9.79 123.48-15.19 123.48-20.12ZM134.27-7.42L134.27-4.76 139.05-4.76 139.05 0 127.94-0.02 123.45-5.35 123.45-7.42 134.27-7.42ZM140.76-19.14L140.76-21.17 135.34-21.17 135.34-25.93 146.82-25.93 150.67-22.07 150.67-19.14 140.76-19.14ZM197.62-19.46L197.62-6.47 191.15 0 183.92 0 183.92-6.05 186.61-6.05 186.61-19.46 183.92-19.46 183.92-25.93 191.15-25.93 197.62-19.46ZM179.4-19.46L179.4-6.05 182.21-6.05 182.21 0 174.96 0 168.49-6.47 168.49-19.46 174.96-25.93 182.21-25.93 182.21-19.46 179.4-19.46ZM222.05-29.35L214.24-29.35 214.24 0 203.42 0 203.42-19.46 200.86-19.46 200.86-25.93 203.42-25.93 203.42-29.76 209.94-35.82 222.05-35.82 222.05-29.35ZM222.05-19.46L215.88-19.46 215.95-25.93 222.05-25.93 222.05-19.46ZM258.38-19.02L258.38-25.93 250.37-25.93 250.37-32.4 262.89-32.4 269.39-25.93 269.39-19.34 266.14-16.09 269.39-12.84 269.39-6.47 262.89 0 250.37 0 250.37-6.47 258.38-6.47 258.38-13.38 250.37-13.38 250.37-19.02 258.38-19.02ZM237.87 0L237.87-32.4 248.66-32.4 248.66 0 237.87 0ZM291.16-13.16L291.16-19.46 286.57-19.46 286.57-22.29 290.18-25.93 296.73-25.93 301.98-19.87 301.98-13.16 291.16-13.16ZM284.84 0L274.05 0 274.05-25.93 284.84-25.93 284.84 0ZM305.32 0L305.32-25.93 316.13-25.93 316.13 0 305.32 0ZM305.32-29.15L305.32-36.04 316.13-36.04 316.13-29.15 305.32-29.15ZM336.86-6.47L336.86 0 327.29 0 321.23-6.05 321.23-35.82 332.03-35.82 332.03-6.47 336.86-6.47ZM355.24-6.47L355.24 0 345.67 0 339.62-6.05 339.62-35.82 350.41-35.82 350.41-6.47 355.24-6.47ZM358.02 0L358.02-25.93 368.84-25.93 368.84 0 358.02 0ZM358.02-29.15L358.02-36.04 368.84-36.04 368.84-29.15 358.02-29.15ZM401.57 0L391.03 0 391.03-19.46 375.67-19.46 375.67-22.68 378.92-25.93 395.1-25.93 401.57-19.46 401.57 0ZM377.84-15.09L389.32-15.09 389.32-10.6 383.75-10.6 383.75-6.05 389.32-6.05 389.32-3.2 386.1 0 377.84 0 373.5-4.27 373.5-10.77 377.84-15.09ZM417.32 0L406.43 0 406.43-25.93 417.32-25.93 417.32 0ZM423.71 0L423.71-19.46 419.08-19.46 419.08-22.29 422.69-25.93 428.7-25.93 434.53-20.09 434.53 0 423.71 0ZM450.1-25.93L450.1 0 445.78 0 439.31-6.47 439.31-19.46 445.78-25.93 450.1-25.93ZM456.6-19.46L451.81-19.46 451.81-25.93 460.92-25.93 467.39-19.46 467.39-15.58 456.6-15.58 456.6-19.46ZM460.92 0L451.81 0 451.81-6.05 456.6-6.05 456.6-9.3 467.39-9.3 467.39-6.47 460.92 0ZM482.4-25.93L482.4 0 478.08 0 471.61-6.47 471.61-19.46 478.08-25.93 482.4-25.93ZM499.74-10.4L484.11-10.4 484.11-14.92 489.8-14.92 489.8-19.46 484.11-19.46 484.11-25.93 493.27-25.93 499.74-19.46 499.74-10.4ZM495.39 0L484.11 0 484.11-6.05 498.61-6.05 498.61-3.25 495.39 0Z" opacity="1" transform="matrix(1,0,0,1,0,0)" fill="#dafdba" class="slogan-text-1" data-fill-palette-color="secondary" id="text-1"></path></svg></g></svg></g></svg></g></svg></g><g></g></svg></g></svg></g></svg></g></svg></g><defs></defs></svg><rect width="320" height="360" fill="none" stroke="none" visibility="hidden"></rect></g></svg></g></svg>